<?xml version="1.0" standalone="no"?>
<!DOCTYPE svg PUBLIC "-//W3C//DTD SVG 20010904//EN"
 "http://www.w3.org/TR/2001/REC-SVG-20010904/DTD/svg10.dtd">
<svg version="1.0" xmlns="http://www.w3.org/2000/svg"
 width="558.000000pt" height="558.000000pt" viewBox="0 0 558.000000 558.000000"
 preserveAspectRatio="xMidYMid meet">
<metadata>
Created by potrace 1.11, written by Peter Selinger 2001-2013
</metadata>
<g transform="translate(0.000000,558.000000) scale(0.100000,-0.100000)"
fill="#000000" stroke="none">
<path d="M3095 4620 c-135 -20 -202 -45 -463 -171 -152 -73 -170 -84 -245
-158 -45 -44 -107 -100 -138 -125 -31 -25 -86 -81 -123 -125 -88 -106 -228
-376 -284 -551 -55 -170 -57 -184 -29 -216 l23 -27 31 49 c17 27 36 69 43 94
23 90 64 207 95 270 18 36 38 83 45 105 21 66 141 223 261 341 209 205 458
343 700 389 44 8 115 24 158 35 65 16 112 20 256 20 193 0 277 -9 402 -45 145
-42 335 -146 432 -238 31 -29 72 -63 92 -75 40 -24 186 -194 314 -365 104
-140 174 -374 200 -667 20 -230 19 -309 -5 -400 -13 -51 -20 -108 -20 -177 l0
-102 37 -10 c20 -6 39 -9 41 -7 2 2 24 69 49 147 l45 144 1 185 c2 219 -11
303 -79 520 -54 170 -112 280 -255 486 -88 126 -113 154 -226 253 -147 128
-258 206 -393 278 -76 41 -136 62 -302 107 l-207 56 -168 -1 c-104 -1 -214 -8
-288 -19z"/>
<path d="M3260 4185 c-22 -27 -15 -66 19 -97 26 -24 30 -33 20 -44 -7 -8 -21
-13 -33 -12 -13 2 -21 -3 -21 -12 0 -20 54 -25 76 -8 34 27 32 54 -7 98 -37
41 -37 55 -1 62 30 5 24 23 -9 26 -19 2 -36 -3 -44 -13z"/>
<path d="M2919 4159 c-29 -29 -20 -60 24 -88 43 -28 48 -56 12 -65 -14 -4 -25
-11 -25 -17 0 -18 28 -21 59 -4 51 26 39 93 -19 113 -37 13 -38 26 -5 48 14 9
22 20 19 25 -9 16 -43 10 -65 -12z"/>
<path d="M3576 4158 c-22 -31 -20 -51 9 -78 37 -34 30 -66 -13 -62 -22 1 -32
-2 -32 -12 0 -31 61 -35 90 -6 27 27 25 52 -6 89 -30 35 -26 62 8 58 15 -1 23
3 23 13 0 10 -12 16 -32 18 -23 2 -35 -3 -47 -20z"/>
<path d="M3887 4023 c-14 -48 -23 -91 -21 -95 11 -18 32 -6 40 23 12 40 29 34
29 -11 0 -50 30 -54 39 -5 4 19 4 40 1 45 -3 5 3 18 15 30 41 41 12 100 -50
100 -24 0 -28 -7 -53 -87z m78 18 c-3 -12 -13 -21 -21 -21 -17 0 -18 14 -3 42
14 26 34 9 24 -21z"/>
<path d="M2652 4067 c-27 -29 -28 -72 -2 -114 30 -50 60 -65 99 -52 35 12 37
35 2 32 -36 -5 -59 14 -72 57 -10 34 -10 43 4 58 37 41 6 59 -31 19z"/>
<path d="M3165 3745 c-177 -18 -207 -28 -256 -86 l-40 -48 27 -7 c17 -4 59 1
108 14 172 45 285 49 539 23 131 -14 207 -35 270 -75 29 -18 84 -43 122 -56
192 -63 409 -282 564 -570 84 -156 94 -307 28 -417 -19 -32 -51 -90 -71 -129
-85 -163 -336 -418 -336 -341 0 7 9 53 19 102 11 50 25 137 31 195 33 305 45
452 37 457 -22 13 -35 -22 -41 -110 -4 -51 -11 -119 -16 -152 -5 -33 -14 -96
-21 -140 -19 -135 -75 -337 -113 -414 -48 -95 -95 -127 -306 -209 -142 -55
-204 -65 -368 -59 -147 5 -268 27 -357 63 -131 54 -193 87 -207 112 -9 15 -32
115 -53 222 -20 107 -52 249 -70 315 -18 66 -43 179 -55 250 l-22 130 52 144
c29 80 59 155 67 168 23 34 91 32 157 -6 28 -15 86 -38 128 -51 72 -21 80 -27
135 -88 l58 -66 0 -142 c0 -166 2 -162 -120 -242 -38 -25 -79 -56 -90 -68 -11
-13 -62 -43 -113 -69 -109 -53 -124 -75 -96 -138 23 -49 127 -147 158 -147 13
0 34 -10 47 -23 59 -58 189 -149 245 -171 49 -20 81 -26 161 -27 57 -1 108 3
119 9 27 15 12 19 -120 29 -86 6 -111 12 -120 25 -6 9 -8 19 -6 21 3 3 64 7
135 10 73 3 152 13 180 21 88 28 128 14 65 -22 -52 -30 -33 -42 30 -21 35 13
143 90 198 142 18 18 44 51 59 75 22 38 23 46 11 58 -13 13 -21 12 -62 -6
-110 -47 -168 -54 -415 -55 -165 0 -235 -3 -238 -11 -7 -20 179 -35 377 -32
110 2 187 -1 190 -7 3 -5 -13 -22 -35 -37 -42 -29 -114 -47 -280 -69 -83 -11
-97 -10 -172 10 -45 11 -94 21 -108 21 -52 0 -105 42 -105 84 0 12 10 16 40
16 27 0 40 4 40 14 0 10 -20 16 -67 21 -62 6 -192 43 -235 66 -10 6 -18 15
-18 22 0 33 129 122 214 148 87 27 112 25 130 -9 18 -34 47 -49 106 -56 25 -2
68 -10 96 -17 47 -11 54 -11 86 9 20 12 50 22 67 22 18 0 42 5 54 12 35 18 97
86 97 106 0 23 -50 72 -73 72 -22 0 -21 -9 4 -36 21 -22 20 -54 0 -54 -6 0
-27 14 -46 32 l-37 31 -31 -18 c-33 -20 -136 -26 -188 -12 -24 6 -27 13 -33
73 -4 36 -4 159 0 273 l7 208 -69 39 c-38 22 -104 53 -148 69 -44 17 -81 35
-83 41 -4 11 238 24 457 24 113 0 398 -25 408 -35 11 -11 -16 -25 -113 -55
-187 -60 -199 -70 -211 -175 -5 -42 -3 -60 10 -80 22 -33 41 -32 78 5 30 30
48 32 48 4 0 -22 41 -17 47 7 4 12 11 18 20 15 8 -3 17 -6 19 -6 2 0 4 -6 4
-14 0 -23 41 -46 80 -46 43 0 80 24 80 51 0 30 24 33 91 9 69 -23 92 -16 56
18 -29 28 -105 42 -223 42 -56 0 -94 4 -94 10 0 6 33 10 80 10 51 0 80 4 80
11 0 10 -126 8 -195 -3 -11 -2 -22 2 -25 7 -5 10 38 24 232 71 114 28 142 45
98 59 -27 9 -25 25 4 25 39 0 70 -40 95 -120 40 -132 58 -175 72 -175 9 0 15
14 17 42 3 45 -46 186 -94 269 -25 45 -79 74 -134 74 -16 0 -58 11 -92 24 -42
16 -111 30 -208 41 -133 16 -170 16 -460 2 -260 -13 -328 -19 -390 -37 -88
-25 -109 -37 -145 -85 -27 -34 -83 -174 -130 -324 -24 -74 -24 -76 -10 -205 8
-72 23 -171 34 -221 11 -49 21 -117 21 -150 0 -33 5 -98 10 -144 11 -86 5
-111 -27 -111 -20 0 -176 160 -288 294 -68 82 -93 106 -109 104 -25 -4 -25 -8
21 -125 32 -81 39 -92 57 -88 16 4 44 -17 126 -96 167 -163 244 -224 354 -280
55 -29 118 -63 139 -76 69 -43 318 -93 466 -93 111 0 333 37 411 69 25 10 64
21 88 25 60 9 182 73 277 144 72 54 309 296 391 399 17 21 46 68 64 103 39 79
57 100 83 100 18 0 19 -4 13 -57 -17 -142 -21 -195 -15 -199 16 -9 38 49 58
150 30 155 29 347 -4 530 -27 152 -30 163 -55 221 -10 22 -30 69 -46 105 -55
126 -140 228 -167 201 -12 -12 14 -78 45 -110 31 -34 128 -251 145 -325 13
-58 14 -69 2 -77 -19 -12 -43 21 -75 105 -25 65 -38 81 -180 220 -83 83 -176
170 -205 193 -70 56 -165 103 -220 110 -62 8 -188 68 -230 109 -31 30 -48 37
-115 49 -95 17 -275 17 -439 0z"/>
<path d="M2582 3575 c-26 -22 -31 -23 -50 -9 -29 20 -57 11 -176 -56 -56 -32
-156 -87 -222 -123 -67 -35 -166 -96 -220 -134 -55 -38 -160 -106 -234 -152
-91 -57 -156 -106 -201 -151 -36 -37 -117 -106 -180 -152 -62 -47 -130 -102
-149 -123 -19 -20 -71 -66 -115 -103 -44 -36 -102 -86 -130 -112 -27 -26 -115
-91 -193 -144 -79 -54 -169 -118 -200 -143 -89 -72 -162 -137 -162 -145 0 -3
23 -11 51 -17 l51 -11 42 38 c22 20 98 83 168 140 70 56 142 120 160 143 79
99 139 155 301 277 95 72 224 179 287 239 123 116 275 238 318 254 14 5 37 7
52 4 19 -4 37 2 66 23 21 15 66 43 99 60 33 18 99 65 147 105 47 39 106 84
130 98 24 15 86 54 139 88 87 55 99 61 124 51 27 -10 27 -11 20 -73 -7 -55
-12 -68 -53 -112 -71 -79 -74 -80 -86 -43 -18 54 -36 47 -36 -15 l0 -55 -72
-67 c-40 -37 -111 -97 -157 -134 -46 -36 -111 -89 -144 -117 -33 -29 -95 -69
-138 -90 -56 -27 -78 -43 -74 -54 2 -10 -18 -29 -63 -58 -97 -62 -210 -159
-228 -195 -9 -18 -28 -44 -42 -59 -30 -32 -23 -46 13 -30 44 20 46 14 11 -48
-49 -90 -156 -204 -220 -235 -66 -32 -205 -49 -291 -35 -32 5 -61 8 -63 5 -12
-12 24 -35 69 -44 109 -24 262 9 429 92 l85 42 87 175 88 174 72 53 c40 29 82
53 93 53 39 0 66 13 64 29 -3 33 2 40 37 51 59 20 254 190 509 446 255 255
310 333 284 396 -15 36 -56 38 -97 3z m53 -25 c12 -19 -25 -96 -54 -113 -30
-18 -48 -12 -30 10 7 7 9 30 6 54 -5 35 -2 41 16 49 30 12 55 12 62 0z"/>
<path d="M2200 3276 c-19 -13 -75 -45 -125 -72 -81 -43 -126 -71 -287 -178
-27 -17 -48 -36 -48 -43 0 -27 25 -23 88 16 97 59 344 222 382 252 45 34 36
57 -10 25z"/>
<path d="M2878 3019 c6 -7 33 -16 60 -19 45 -5 46 -6 24 -19 -13 -7 -65 -15
-116 -18 -102 -6 -145 -24 -114 -47 12 -8 33 -10 68 -6 49 6 51 6 70 -27 18
-32 23 -33 57 -27 46 8 83 29 83 48 0 15 21 26 50 26 36 0 40 23 10 60 -28 35
-30 35 -117 38 -72 3 -86 1 -75 -9z"/>
<path d="M2237 2983 c-4 -3 -2 -14 3 -23 36 -67 -80 -240 -190 -287 -19 -8
-76 -35 -127 -59 -50 -24 -97 -44 -102 -44 -13 0 -51 -59 -51 -77 0 -7 9 -13
20 -13 29 0 25 -11 -27 -80 -27 -34 -60 -82 -74 -107 -67 -114 -190 -196 -354
-234 -190 -45 -249 -72 -381 -179 -66 -53 -142 -109 -168 -125 -47 -27 -48
-28 -179 -22 -86 4 -158 13 -207 26 -72 20 -93 20 -74 1 15 -15 155 -50 200
-50 46 0 71 -19 52 -38 -17 -17 -57 -15 -130 8 -124 39 -150 14 -32 -32 88
-34 197 -38 280 -9 30 11 80 25 112 32 112 23 203 85 238 165 21 48 56 84 124
127 14 9 79 32 144 52 170 51 278 114 386 223 57 58 91 102 103 132 19 51 144
173 214 208 23 12 67 44 99 72 31 27 61 50 65 50 5 0 21 19 36 43 15 23 42 61
61 83 32 41 45 95 28 122 -10 16 -62 43 -69 35z"/>
<path d="M4003 2863 c-7 -2 -13 -9 -13 -15 0 -14 43 -6 48 10 4 12 -12 15 -35
5z"/>
<path d="M2980 2830 c-14 -4 -40 -8 -57 -9 -44 -1 -42 -18 2 -27 42 -7 161 -1
171 9 22 21 -70 43 -116 27z"/>
<path d="M3712 2824 c2 -10 14 -21 28 -25 38 -11 150 -10 150 1 0 8 -18 13
-110 26 -19 3 -43 8 -53 10 -14 5 -18 1 -15 -12z"/>
<path d="M3764 2389 c-11 -18 19 -39 97 -65 55 -19 82 -34 106 -62 l33 -37 0
51 c0 30 -5 56 -12 61 -7 6 -37 13 -67 17 -30 4 -71 16 -92 27 -44 22 -55 23
-65 8z"/>
<path d="M1866 2343 c-28 -47 -28 -49 -16 -108 6 -33 27 -88 46 -121 103 -184
122 -368 80 -754 -16 -144 -35 -187 -91 -205 -204 -66 -604 -93 -870 -60 -127
16 -203 19 -229 9 -34 -13 -12 -30 67 -52 73 -20 112 -23 357 -28 151 -2 322
-9 380 -14 122 -10 278 6 375 40 52 18 61 19 71 6 9 -12 13 -10 27 14 22 36
36 190 47 510 5 135 9 247 9 249 1 2 16 1 34 -3 36 -7 118 -59 175 -110 47
-43 141 -91 154 -78 17 17 -2 37 -75 78 -189 108 -350 324 -494 662 -9 20 -17
14 -47 -35z"/>
<path d="M4880 2365 c0 -9 5 -26 12 -38 21 -39 27 -129 17 -232 -16 -160 -64
-326 -94 -325 -5 1 -27 16 -49 34 l-39 33 -5 114 c-3 85 0 136 13 202 9 48 15
90 12 93 -12 13 -26 -9 -37 -58 -20 -84 -100 -310 -124 -348 -20 -33 -21 -51
-26 -328 l-5 -292 -327 -132 c-216 -87 -328 -137 -328 -146 0 -11 8 -13 33 -8
17 4 66 11 107 15 41 5 122 24 180 44 63 21 136 38 182 42 61 5 86 13 125 37
42 27 56 31 113 29 36 -1 94 -6 130 -11 35 -5 67 -7 69 -4 12 12 -27 58 -64
78 l-41 20 1 231 0 230 52 3 c47 3 56 7 79 37 31 41 68 180 85 315 13 108 2
230 -28 320 -17 52 -43 79 -43 45z"/>
<path d="M3293 1838 c-21 -35 133 -64 201 -38 40 15 33 40 -11 41 -122 4 -185
3 -190 -3z"/>
<path d="M2730 1471 c0 -6 9 -15 19 -21 22 -11 41 -85 41 -159 0 -39 -7 -59
-33 -97 -55 -80 -74 -89 -183 -89 -92 0 -94 0 -73 -18 18 -14 39 -17 123 -15
55 1 112 -1 126 -6 l25 -8 -25 21 c-23 18 -24 20 -6 27 27 10 86 140 86 189 0
53 -15 105 -43 146 -22 33 -57 51 -57 30z"/>
</g>
</svg>
